{"accessors":[{"bufferView":2,"componentType":5126,"count":144,"max":[8,3.999999523162842,20],"min":[-8,-4.000000476837158,-12],"type":"VEC3"},{"bufferView":2,"byteOffset":1728,"componentType":5126,"count":144,"max":[1,1,1],"min":[-1,-1,-1],"type":"VEC3"},{"bufferView":3,"componentType":5126,"count":144,"max":[1,1,0,1],"min":[-1,-1,0,-1],"type":"VEC4"},{"bufferView":1,"componentType":5126,"count":144,"max":[0.875,1],"min":[0,0],"type":"VEC2"},{"bufferView":0,"componentType":5125,"count":216,"max":[143],"min":[0],"type":"SCALAR"}],"asset":{"extras":{"author":"Vincent Yanez (https://sketchfab.com/vinceyanez)","license":"CC-BY-4.0 (http://creativecommons.org/licenses/by/4.0/)","source":"https://sketchfab.com/3d-models/minecraft-steve-cb228dcc137042cc9a3dc588758cc6e9","title":"Minecraft - Steve"},"generator":"Sketchfab-6.40.1","version":"2.0"},"bufferViews":[{"buffer":0,"byteLength":864,"byteOffset":0,"name":"floatBufferViews","target":34963},{"buffer":0,"byteLength":1152,"byteOffset":864,"byteStride":8,"name":"floatBufferViews","target":34962},{"buffer":0,"byteLength":3456,"byteOffset":2016,"byteStride":12,"name":"floatBufferViews","target":34962},{"buffer":0,"byteLength":2304,"byteOffset":5472,"byteStride":16,"name":"floatBufferViews","target":34962}],"buffers":[{"byteLength":7776,"uri":"data:application/octet-stream;base64,"}],"images":[{"uri":"data:application/octet-stream;base64,"}],"materials":[{"doubleSided":true,"emissiveFactor":[0,0,0],"name":"02_-_Default","pbrMetallicRoughness":{"baseColorFactor":[1,1,1,1],"baseColorTexture":{"index":0,"texCoord":0},"metallicFactor":0,"roughnessFactor":0.4}}],"meshes":[{"name":"Steve_02 - Default_0","primitives":[{"attributes":{"NORMAL":1,"POSITION":0,"TANGENT":2,"TEXCOORD_0":3},"indices":4,"material":0,"mode":4}]}],"nodes":[{"children":[1],"name":"RootNode (gltf orientation matrix)","rotation":[-0.7071067811865475,0,0,0.7071067811865476]},{"children":[2],"name":"RootNode (model correction matrix)"},{"children":[3],"matrix":[1,0,0,0,0,0,1,0,0,-1,0,0,0,0,0,1],"name":"21d0206dd6d3419fae876636965f5f90.fbx"},{"children":[4],"name":"RootNode"},{"children":[5],"matrix":[1,0,0,0,0,2.220446049250313e-16,-1,0,0,1,2.220446049250313e-16,0,0,0,-3.9721101074974285e-8,1],"name":"Steve"},{"children":[6],"matrix":[1,0,0,0,0,1,0,0,0,0,1,0,0,4.76837158203125e-7,-4,1],"name":""},{"mesh":0,"name":"Steve_02 - Default_0"}],"samplers":[{"magFilter":9728,"minFilter":9986,"wrapS":10497,"wrapT":10497}],"scene":0,"scenes":[{"name":"OSG_Scene","nodes":[0]}],"textures":[{"sampler":0,"source":0}]}